<svg xmlns="http://www.w3.org/2000/svg" fill="none" viewBox="0 0 89 50" height="50" width="89">
<path fill="#FFFFFE" d="M29.5025 40.1077L32.0279 40.0266C33.7774 39.9703 36.0204 40.7968 35.078 43.7164C34.1391 46.6248 31.306 47.624 29.5565 47.6802L27.0311 47.7614L29.5025 40.1077ZM30.0372 46.1939C31.4692 46.1479 32.9219 45.2359 33.3951 43.7705C33.8717 42.2946 32.9806 41.4683 31.5485 41.5143L30.6848 41.5418L29.1741 46.2214L30.0378 46.1939L30.0372 46.1939Z"></path>
<path fill="#FFFFFE" d="M35.4128 45.0261C35.8962 43.5286 37.3829 42.4096 38.8482 42.3625C40.2697 42.3171 41.3735 43.2554 40.4575 45.2544L36.8169 45.3713C36.7968 45.8697 37.0917 46.2282 37.8576 46.2039C38.4698 46.1845 38.9986 45.8211 39.1968 45.6416L40.0639 46.2738C39.3793 47.053 38.3304 47.4871 37.3462 47.5184C35.8157 47.5676 34.9192 46.5578 35.4135 45.0268L35.4128 45.0261ZM39.3432 44.3812C39.3927 43.8606 39.0541 43.5676 38.4852 43.586C37.9275 43.6038 37.4465 43.9879 37.1452 44.4514L39.3426 44.3812L39.3432 44.3812Z"></path>
<path fill="#FFFFFE" d="M41.5308 42.3634L43.2144 42.3093L43.5289 45.4915L45.9261 42.2229L47.6096 42.1688L43.6926 47.2276L42.2166 47.2746L41.5301 42.3628L41.5308 42.3634Z"></path>
<path fill="#FFFFFE" d="M46.9148 44.6578C47.3982 43.1603 48.8849 42.0413 50.3502 41.9943C51.7716 41.9489 52.8755 42.8872 51.9595 44.8862L48.3188 45.003C48.2987 45.5014 48.5936 45.8599 49.3596 45.8356C49.9718 45.8162 50.5005 45.4529 50.6987 45.2734L51.5659 45.9055C50.8812 46.6847 49.8323 47.1188 48.8481 47.1501C47.3176 47.1994 46.4211 46.1895 46.9154 44.6585L46.9148 44.6578ZM50.8452 44.0129C50.8947 43.4923 50.5561 43.1993 49.9871 43.2177C49.4182 43.2361 48.9485 43.6196 48.6472 44.0832L50.8445 44.0129L50.8452 44.0129Z"></path>
<path fill="#FFFFFE" d="M54.3072 40.0894L55.7938 40.0418L53.6758 46.9087L52.1892 46.9563L54.3072 40.0894Z"></path>
<path fill="#FFFFFE" d="M55.355 44.3873C55.8493 42.857 57.4456 41.767 58.867 41.7216C60.2884 41.6762 61.2069 42.6856 60.7126 44.2159C60.2183 45.7469 58.622 46.8362 57.2006 46.8816C55.7792 46.927 54.8608 45.9183 55.355 44.3873ZM57.6521 45.4825C58.2862 45.4619 59.0064 44.9421 59.2253 44.2635C59.4442 43.5856 59.0491 43.1008 58.4149 43.1207C57.7807 43.1413 57.0606 43.6618 56.8423 44.3397C56.6234 45.0176 57.0186 45.5025 57.6527 45.4825L57.6521 45.4825Z"></path>
<path fill="#FFFFFE" d="M62.2831 41.6986L63.7697 41.651L63.5759 42.2521C64.0999 41.8033 64.7279 41.534 65.4273 41.5112C66.6191 41.4728 67.4171 42.4866 66.9228 44.0169C66.4285 45.5479 64.9527 46.6334 63.7608 46.6719C63.0608 46.694 62.5954 46.4605 62.3541 46.0353L61.3126 49.0614L59.826 49.109L62.2831 41.6992L62.2831 41.6986ZM63.7758 45.2862C64.4099 45.2656 65.1301 44.7457 65.349 44.0672C65.5679 43.3893 65.1728 42.9044 64.5386 42.9244C63.9044 42.945 63.1843 43.4655 62.9654 44.1434C62.7464 44.8213 63.1416 45.3061 63.7758 45.2862Z"></path>
<path fill="#FFFFFE" d="M67.4689 43.9999C67.9524 42.5024 69.4391 41.3834 70.9044 41.3363C72.3258 41.2909 73.4297 42.2292 72.5137 44.2282L68.873 44.345C68.8529 44.8434 69.1478 45.202 69.9138 45.1777C70.526 45.1582 71.0547 44.7949 71.2529 44.6154L72.1201 45.2475C71.4354 46.0268 70.3865 46.4608 69.4023 46.4922C67.8718 46.5414 66.9753 45.5315 67.4696 44.0005L67.4689 43.9999ZM71.3994 43.3549C71.4489 42.8344 71.1103 42.5413 70.5413 42.5598C69.9837 42.5776 69.5027 42.9617 69.2014 43.4252L71.3987 43.3549L71.3994 43.3549Z"></path>
<path fill="#FFFFFE" d="M74.3527 41.3128L75.8393 41.2652L75.532 42.2161C76.0939 41.5814 76.7968 41.1475 77.5734 41.1227L77.0546 42.7298C76.9333 42.6691 76.7653 42.6206 76.5577 42.627C75.7485 42.653 75.1689 43.3422 74.9215 44.1074L74.2293 46.25L72.7427 46.2975L74.3527 41.3121L74.3527 41.3128Z"></path>
<path fill="#FFFFFE" d="M76.5745 45.2231L77.8838 44.5534C77.9289 44.6813 78.1402 44.9991 78.785 44.9786C79.1018 44.9683 79.3848 44.8302 79.4555 44.611C79.5371 44.359 79.2086 44.3377 78.6891 44.1374C78.1363 43.9389 77.3862 43.6811 77.7072 42.6863C78.0111 41.7459 78.9844 41.0765 80.0671 41.0413C80.8217 41.0169 81.4839 41.2774 81.7283 41.6263L80.6695 42.526C80.581 42.4313 80.229 42.2473 79.8464 42.2598C79.5949 42.2679 79.3075 42.3527 79.2368 42.5719C79.1661 42.7905 79.4183 42.8797 79.8835 43.0493C80.4105 43.2272 81.295 43.4695 80.9667 44.486C80.6097 45.5904 79.5812 46.1641 78.4765 46.1992C77.4378 46.2327 76.674 45.7486 76.5739 45.2218L76.5745 45.2231Z"></path>
<path fill="#FFFFFE" d="M58.9255 1.1017L57.0293 7.15784C56.6735 8.29386 55.7321 9.15551 54.5593 9.41836L39.4534 12.8094C34.7671 13.8615 31.0036 17.3028 29.5776 21.8396L22.2511 44.0593C21.8867 45.1789 20.9521 46.0248 19.792 46.2851L13.6263 47.6689L22.0703 22.0375L24.0359 15.7602C25.4585 11.2168 29.2247 7.76956 33.9164 6.7162L58.9261 1.1017L58.9255 1.1017Z"></path>
<path fill="#FFFFFE" d="M0.187124 21.6808L2.66355 13.7825L22.5126 9.30759C22.5126 9.30759 20.8242 9.67802 18.5041 17.5767L0.187124 21.6808Z"></path>
<path fill="#FFFFFE" d="M33.7767 27.0679C35.5988 21.4256 41.0855 17.2142 46.6047 17.038C51.9589 16.8666 56.1165 20.4017 52.6667 27.9308L38.9517 28.3698C38.8755 30.2471 39.9885 31.5971 42.8713 31.5053C45.1777 31.4312 47.1685 30.0631 47.917 29.3876L51.1831 31.7694C48.6046 34.7053 44.6527 36.3399 40.9462 36.4583C35.18 36.6426 31.9158 32.8342 33.7774 27.0686L33.7767 27.0679ZM48.4701 24.6408C48.6554 22.6782 47.3803 21.5776 45.2389 21.6463C43.138 21.7133 41.3271 23.1569 40.1919 24.9058L48.4708 24.6409L48.4701 24.6408Z"></path>
<path fill="#FFFFFE" d="M59.5979 16.9498L65.1997 16.7703L64.0425 20.3533C66.1595 17.9628 68.8067 16.329 71.7314 16.2355L69.7767 22.2899C69.3212 22.0598 68.6871 21.8765 67.9052 21.9014C64.8574 21.9986 62.6732 24.5959 61.7424 27.4794L59.1357 35.5518L53.534 35.7313L59.5986 16.9505L59.5979 16.9498Z"></path>
<path fill="#FFFFFE" d="M68.5249 29.952C70.2804 24.5151 76.1881 23.3886 79.9765 23.2675L82.2417 23.1951C82.4057 21.8039 81.7087 20.8072 79.5667 20.8759C77.2602 20.95 74.8428 22.25 73.7379 22.8967L73.0388 19.1285C75.2341 17.6317 78.3621 16.0236 81.4924 15.9229C87.0529 15.7451 89.3755 18.5242 87.6201 23.9604L84.1356 34.7509L78.5339 34.9304L79.0921 33.2006C77.7725 34.3839 75.9151 35.3404 73.2373 35.4258C69.3244 35.5513 67.4732 33.2056 68.5243 29.952L68.5249 29.952ZM76.0564 31.7491C78.3628 31.6749 79.9405 30.1981 80.4763 28.9174L81.0617 27.1048L79.3728 27.1589C76.49 27.2514 74.4505 27.8871 73.8916 29.6169C73.4524 30.976 74.45 31.8004 76.0564 31.7491Z"></path>
</svg>
